<?xml version="1.0" encoding="utf-8"?>
<!-- Generator: Adobe Illustrator 21.0.0, SVG Export Plug-In . SVG Version: 6.00 Build 0)  -->
<svg version="1.1" id="Calque_1" xmlns="http://www.w3.org/2000/svg" xmlns:xlink="http://www.w3.org/1999/xlink" x="0px" y="0px"
	 viewBox="0 0 24 24" style="enable-background:new 0 0 24 24;" xml:space="preserve">
<style type="text/css">
	.st0{fill:none;}
</style>
<path class="st0" d="M0,0h24v24H0V0z"/>
<g>
	<g>
		<path d="M12,0C5.376,0,0,5.376,0,12c0,6.624,5.376,12,12,12c6.624,0,12-5.376,12-12C24,5.376,18.624,0,12,0z M17.113,13.492
			c0,0.328-0.269,0.597-0.597,0.597h-3.092c-0.286,0-0.531-0.197-0.585-0.477l-0.143-0.716H9.354v3.581
			c0,0.328-0.269,0.597-0.597,0.597c-0.328,0-0.597-0.269-0.597-0.597V7.524c0-0.328,0.269-0.597,0.597-0.597h4.285
			c0.286,0,0.531,0.203,0.585,0.477l0.143,0.716h2.746c0.328,0,0.597,0.269,0.597,0.597V13.492z"/>
	</g>
</g>
</svg>
