<?xml version="1.0" encoding="utf-8"?>
<!-- Generator: Adobe Illustrator 21.0.0, SVG Export Plug-In . SVG Version: 6.00 Build 0)  -->
<svg version="1.1" id="Calque_1" xmlns="http://www.w3.org/2000/svg" xmlns:xlink="http://www.w3.org/1999/xlink" x="0px" y="0px"
	 viewBox="0 0 24 24" style="enable-background:new 0 0 24 24;" xml:space="preserve">
<style type="text/css">
	.st0{fill:none;}
</style>
<path class="st0" d="M0,0h24v24H0V0z"/>
<path d="M18.254,8.802l-0.168-0.034c-1.475-0.296-3.275-0.659-4.609-1.651C13.112,6.713,12.585,6.459,12,6.459
	c-0.585,0-1.112,0.254-1.476,0.656C9.19,8.109,7.389,8.472,5.914,8.768L5.746,8.802c-2.21,0.221-3.941,2.092-3.941,4.359
	c0,2.415,1.965,4.381,4.381,4.381c2.249,0,4.107-1.704,4.353-3.888c0.485,0.046,0.972,0.07,1.462,0.07
	c0.489,0,0.977-0.023,1.461-0.069c0.246,2.184,2.104,3.888,4.353,3.888c2.415,0,4.381-1.965,4.381-4.381
	C22.195,10.893,20.464,9.023,18.254,8.802z"/>
</svg>
